# xmcd
#
# Track frame offsets:
#	150
#	26745
#	65527
#	76381
#	91853
#	114368
#	131151
#	155484
#	183930
#	202411
#	226404
#	243165
#	257826
#	277810
#	300159
#
# Disc length: 4435 seconds
#
# Revision: 0
# Processed by: cddbd v1.5.2PL0 Copyright (c) Steve Scherf et al.
# Submitted via: dBpowerAMP V4.0
#
DISCID=c311510f
DTITLE=Roland Neuwirth und die Extremschrammeln - Wien g´spürn
DYEAR=2006
DGENRE=National Folk
TTITLE0=Wien g´spürn
TTITLE1=Zug fährt ab (U-Bahn Gstanzln)
TTITLE2=Der Wiener Konjunktiv
TTITLE3=Lahn die z´ruck
TTITLE4=Auf meiner Veranda
TTITLE5=Es nimmt alles seinen Lauf
TTITLE6=Hawarie
TTITLE7=I hab die Welt neuch erfunden
TTITLE8=Ka Ahnung
TTITLE9=Bled samma scho
TTITLE10=Knapp vorbei
TTITLE11=I und mei Klon
TTITLE12=Gehn S´, Herr Nachbar
TTITLE13=Ma kann si auf nix mehr verlossn
TTITLE14=Eigschenkt (Wein-Gstanzln)
EXTD=
EXTT0=
EXTT1=
EXTT2=
EXTT3=
EXTT4=
EXTT5=
EXTT6=
EXTT7=
EXTT8=
EXTT9=
EXTT10=
EXTT11=
EXTT12=
EXTT13=
EXTT14=
PLAYORDER=
